<svg xmlns:xlink="http://www.w3.org/1999/xlink" xmlns="http://www.w3.org/2000/svg" aria-hidden="true" style="position:absolute;width:0;height:0;overflow:hidden" width="24"  height="24" > <symbol id="IX" viewBox="0 0 24 24" stroke-opacity="0.9" stroke="#121217" fill-opacity="0.9" fill="#121217" stroke-width="0px"> <path fill-rule="evenodd" clip-rule="evenodd" d="M12 10.303L17.803 4.5 19.5 6.197 13.697 12l5.803 5.803-1.697 1.697L12 13.697 6.197 19.5 4.5 17.803 10.303 12 4.5 6.197 6.197 4.5 12 10.303z" fill="#121217" stroke="#121217" fill-opacity="0.9" stroke-width="0px" stroke-opacity="0.9"></path> </symbol> <symbol id="ISpeaker" viewBox="0 0 24 24" stroke-opacity="0.9" stroke="#121217" fill-opacity="0.9" fill="#121217" stroke-width="0px"> <path fill-rule="evenodd" clip-rule="evenodd" d="M8 13.166l10 2.857V7.326L8 10.183v2.983zm-2 1.131a.5.5 0 00.363.481l13 3.714a.5.5 0 00.637-.48V5.337a.5.5 0 00-.637-.48l-13 3.714a.5.5 0 00-.363.48v5.246z" fill="#121217" stroke="#121217" fill-opacity="0.9" stroke-width="0px" stroke-opacity="0.9"></path><path fill-rule="evenodd" clip-rule="evenodd" d="M6 15.675v-2h2v2a1 1 0 102 0v-1h2v1a3 3 0 11-6 0z" fill="#121217" stroke="#121217" fill-opacity="0.9" stroke-width="0px" stroke-opacity="0.9"></path><path d="M3 8.925a.25.25 0 01.25-.25h1.5a.25.25 0 01.25.25v5.5a.25.25 0 01-.25.25h-1.5a.25.25 0 01-.25-.25v-5.5z" fill="#121217" stroke="#121217" fill-opacity="0.9" stroke-width="0px" stroke-opacity="0.9"></path> </symbol> <symbol id="IChevronLeft" viewBox="0 0 24 24" stroke-opacity="0.9" stroke="#121217" fill-opacity="0.9" fill="#121217" stroke-width="0px"> <path d="M10.5 12l4.5 6h-3.5L7 12l4.5-6H15l-4.5 6z" fill="#121217" stroke="#121217" fill-opacity="0.9" stroke-width="0px" stroke-opacity="0.9"></path> </symbol> <symbol id="IChevronRight" viewBox="0 0 24 24" stroke-opacity="0.9" stroke="#121217" fill-opacity="0.9" fill="#121217" stroke-width="0px"> <path d="M13.5 12L9 18h3.5l4.5-6-4.5-6H9l4.5 6z" fill="#121217" stroke="#121217" fill-opacity="0.9" stroke-width="0px" stroke-opacity="0.9"></path> </symbol> <symbol id="IStar" viewBox="0 0 24 24" stroke-opacity="0.9" stroke="#121217" fill-opacity="0.9" fill="#121217" stroke-width="0px"> <path d="M12 17.27L18.18 21l-1.64-7.03L22 9.24l-7.19-.62L12 2 9.19 8.62 2 9.24l5.45 4.73L5.82 21 12 17.27z" fill="#121217" stroke="#121217" fill-opacity="0.9" stroke-width="0px" stroke-opacity="0.9"></path> </symbol> <symbol id="IPlus" viewBox="0 0 24 24" stroke-opacity="0.9" stroke="#121217" fill-opacity="0.9" fill="#121217" stroke-width="0px"> <path fill-rule="evenodd" clip-rule="evenodd" d="M10.8 10.8V4h2.4v6.8H20v2.4h-6.8V20h-2.4v-6.8H4v-2.4h6.8z" fill="#121217" stroke="#121217" fill-opacity="0.9" stroke-width="0px" stroke-opacity="0.9"></path> </symbol> <symbol id="IAdd" viewBox="0 0 24 24" stroke-opacity="0.9" stroke="#121217" fill-opacity="0.9" fill="#121217" stroke-width="0px"> <path fill-rule="evenodd" clip-rule="evenodd" d="M22 12c0 5.523-4.477 10-10 10S2 17.523 2 12 6.477 2 12 2s10 4.477 10 10zm-11-1V6h2v5h5v2h-5v5h-2v-5H6v-2h5z" fill="#121217" stroke="#121217" fill-opacity="0.9" stroke-width="0px" stroke-opacity="0.9"></path> </symbol> <symbol id="IChapter" viewBox="0 0 24 24" stroke-opacity="0.9" stroke="#121217" fill-opacity="0.9" fill="#121217" stroke-width="0px"> <path fill-rule="evenodd" clip-rule="evenodd" d="M4 2h10l6 6v14H4V2zm4 4h4v2H8V6zm8 6v-2H8v2h8z" fill="#121217" stroke="#121217" fill-opacity="0.9" stroke-width="0px" stroke-opacity="0.9"></path> </symbol> <symbol id="ISetting" viewBox="0 0 24 24" stroke-opacity="0.9" stroke="#121217" fill-opacity="0.9" fill="#121217" stroke-width="0px"> <path fill-rule="evenodd" clip-rule="evenodd" d="M17.5 21.526L23 12l-5.5-9.526h-11L1 12l5.5 9.526h11zM12 16a4 4 0 100-8 4 4 0 000 8z" fill="#121217" stroke="#121217" fill-opacity="0.9" stroke-width="0px" stroke-opacity="0.9"></path> </symbol> <symbol id="ICheckmark" viewBox="0 0 24 24" stroke-opacity="0.9" stroke="#121217" fill-opacity="0.9" fill="#121217" stroke-width="0px"> <path d="M19.803 5.303L9.5 15.606l-4.803-4.803L3 12.5 9.5 19l12-12-1.697-1.697z" fill="#121217" stroke="#121217" fill-opacity="0.9" stroke-width="0px" stroke-opacity="0.9"></path> </symbol> </svg>