<svg width='1024'  height='1024' ><defs><symbol id="i-ins" viewBox="0 0 1024 1024" stroke-opacity="0.9" stroke="#121217" fill-opacity="0.9" fill="#121217" stroke-width="0px"><path d="M706.3977034 44.71666667c50.0002966 2.19437007 84.16977777 10.3057034 114.10725987 21.86533333 31.23059229 11.75555556 59.71822223 30.32933333 83.22933333 54.19311111a229.50762993 229.50762993 0 0 1 54.34985124 83.38607438c11.59881451 29.78074105 19.67096327 64.14614784 21.86533333 114.10725895 1.99844444 45.14133333 2.35111111 62.61792562 2.3902966 158.7v59.20881452c-0.07837007 105.87837007-0.70533333 122.92392562-2.74296326 169.75022221-2.19437007 49.96111111-10.3057034 84.13059228-21.86533334 114.06807439a240.55785216 240.55785216 0 0 1-137.61837006 137.61837006c-29.78074105 11.55962993-64.10696327 19.63177777-114.06807438 21.86533334-43.49555556 1.88088889-61.28562993 2.54703673-148.35511111 2.74296327h-90.90962902c-87.10866667-0.19592562-104.89874105-0.86207438-148.3942966-2.74296327-49.96111111-2.23355556-84.13059228-10.3057034-114.06807439-21.86533334a231.46688889 231.46688889 0 0 1-83.22933333-54.19311111A231.89792561 231.89792561 0 0 1 66.69955556 819.99555556C55.13992561 790.21481451 47.06777777 755.88859229 44.83422223 705.96666667c-1.88088889-43.49555556-2.54703673-61.28562993-2.74296328-148.3942966v-90.90962902c0.19592562-87.06948117 0.86207438-104.89874105 2.93888889-148.51185216 2.19437007-50.0002966 10.3057034-84.16977777 21.86533333-114.10725896 11.75555556-31.23059229 30.32933333-59.71822223 54.19311111-83.22933333A229.46844444 229.46844444 0 0 1 204.51385216 66.38607438C234.29459228 54.82644444 268.58162993 46.7542966 318.58192561 44.52074104 362.07748117 42.63985216 379.86755556 41.9737034 466.93703673 41.77777777h90.90962994c87.10866667 0.19592562 104.93792562 0.86207438 148.55103673 2.9388889zM512.31348117 218.11111111c-162.22666667 0-293.88888889 131.66222223-293.88888889 293.88888889 0 162.22666667 131.66222223 293.88888889 293.88888889 293.88888889 162.22666667 0 293.88888889-131.66222223 293.8888889-293.88888889 0-162.22666667-131.66222223-293.88888889-293.8888889-293.88888889z m0 103.25296327a190.67511111 190.67511111 0 1 1-0.03918457 381.31103673A190.67511111 190.67511111 0 0 1 512.31348117 321.36407438zM786.60977777 159.33333333a58.77777777 58.77777777 0 1 0 0 117.55555556 58.77777777 58.77777777 0 0 0 0-117.55555556z" stroke="#121217" fill-opacity="0.9" fill="#121217" stroke-width="0px" stroke-opacity="0.9"></path></symbol></defs> <use xlink:href="#i-ins" stroke-opacity="0.5" stroke="#FFFFFF" fill-opacity="0.5" fill="#FFFFFF" stroke-width="0px"></use> </svg>