<svg width='1024'  height='1024' ><defs><symbol id="i-search" viewBox="0 0 1024 1024" stroke-opacity="0.9" stroke="#121217" fill-opacity="0.9" fill="#121217" stroke-width="0px"><path d="M881.140625 807.3125L691.296875 617.46875c89.6484375-121.2890625 79.1015625-295.3125-31.640625-406.0546875-121.2890625-121.2890625-321.6796875-121.2890625-448.2421875 0-121.2890625 121.2890625-121.2890625 321.6796875 0 448.2421875 110.7421875 110.7421875 284.765625 121.2890625 406.0546875 31.640625l189.84375 189.84375c21.09375 21.09375 52.734375 21.09375 73.828125 0C902.234375 860.046875 902.234375 823.1328125 881.140625 807.3125zM601.6484375 601.6484375c-94.921875 94.921875-242.578125 94.921875-337.5 0-94.921875-94.921875-94.921875-242.578125 0-337.5 94.921875-94.921875 242.578125-94.921875 337.5 0C691.296875 359.0703125 691.296875 506.7265625 601.6484375 601.6484375z" stroke="#121217" fill-opacity="0.9" fill="#121217" stroke-width="0px" stroke-opacity="0.9"></path></symbol></defs><use xlink:href="#i-search" stroke="#83848F" fill="#83848F" stroke-width="0px"></use></svg>