<svg width='1024'  height='1024' ><defs><symbol id="i-twitter" viewBox="0 0 1024 1024" stroke-opacity="0.9" stroke="#121217" fill-opacity="0.9" fill="#121217" stroke-width="0px"><path d="M982.22222223 220.42303673c-34.95318549 15.32140771-72.2182966 25.47037007-111.09 30.40770432a191.73311111 191.73311111 0 0 0 84.83592561-106.54451882 385.30792562 385.30792562 0 0 1-122.25777777 46.66955554 192.75192562 192.75192562 0 0 0-333.50511112 131.85814785c0 15.28222223 1.29311111 29.93748117 4.46711112 43.92659321-160.30659228-7.79785216-302.11777777-84.64-397.41614784-201.64696327a194.12340771 194.12340771 0 0 0-26.37162995 97.45355555c0 66.77155556 34.36540771 125.94118549 85.61962995 160.22822222A190.40081451 190.40081451 0 0 1 79.39555556 399.02911111v2.116a193.69237007 193.69237007 0 0 0 154.468 189.46037006c-15.67407439 4.27118549-32.798 6.348-50.54888889 6.348a170.45555556 170.45555556 0 0 1-36.52059228-3.29155556c25.00014784 76.33274104 95.88614784 132.44592562 180.17348117 134.28762995a387.38474105 387.38474105 0 0 1-239.02962994 82.2497034c-15.83081451 0-30.99548117-0.70533333-46.16014785-2.66459229a542.79318549 542.79318549 0 0 0 295.76977779 86.52088889c354.78266667 0 548.74933333-293.88888889 548.74933333-548.63177779 0-8.50318549-0.31348117-16.73207438-0.70533333-24.92177777A384.64177777 384.64177777 0 0 0 982.22222223 220.42303673z" stroke="#121217" fill-opacity="0.9" fill="#121217" stroke-width="0px" stroke-opacity="0.9"></path></symbol></defs> <use xlink:href="#i-twitter" stroke-opacity="0.5" stroke="#FFFFFF" fill-opacity="0.5" fill="#FFFFFF" stroke-width="0px"></use> </svg>