<svg width='1024'  height='1024' ><defs><symbol id="i-youtube" viewBox="0 0 1024 1024" stroke-opacity="0.9" stroke="#121217" fill-opacity="0.9" fill="#121217" stroke-width="0px"><path d="M875.18435555 198.52288a118.03477333 118.03477333 0 0 1 83.06005334 83.0208c16.99669333 62.21653333 19.11637333 181.27189333 19.35189333 216.99242667v20.88277333c-0.43178667 35.79904-3.02250667 154.03008-19.35189333 216.0896a118.03477333 118.03477333 0 0 1-83.06005334 83.06005333c-59.50805333 15.66208-263.15434667 18.68458667-339.42357333 19.23413334h-57.58464c-75.60192-0.5888-279.87626667-3.68981333-340.16938667-20.0192a118.03477333 118.03477333 0 0 1-83.06005333-83.0208C38.46030222 672.86016 35.98734222 552.82346667 35.63406222 517.888v-19.50890667l0.27477333-17.62474666c0.98133333-47.37877333 4.7104-144.8448 19.03786667-199.24992A120.46848 120.46848 0 0 1 138.00675555 197.73781333c64.29696-16.87893333 296.91221333-19.07712 355.24266667-19.35189333l59.86133333 0.27477333c86.12181333 0.94208 266.64789333 4.7104 322.0736 19.86218667zM412.70158222 366.91968V649.38666667l245.21557333-141.23349334-245.21557333-141.23349333z" stroke="#121217" fill-opacity="0.9" fill="#121217" stroke-width="0px" stroke-opacity="0.9"></path></symbol></defs> <use xlink:href="#i-youtube" stroke-opacity="0.5" stroke="#FFFFFF" fill-opacity="0.5" fill="#FFFFFF" stroke-width="0px"></use> </svg>